<?xml version="1.0" standalone="no"?>
<!-- Generator: Adobe Fireworks 10, Export SVG Extension by Aaron Beall (http://fireworks.abeall.com) . Version: 0.6.1  -->
<!DOCTYPE svg PUBLIC "-//W3C//DTD SVG 1.1//EN" "http://www.w3.org/Graphics/SVG/1.1/DTD/svg11.dtd">
<svg id="spice_master_white_bg_black_outer.fw-Page%201" viewBox="0 0 339 387" style="background-color:#ffffff00" version="1.1"
	xmlns="http://www.w3.org/2000/svg" xmlns:xlink="http://www.w3.org/1999/xlink" xml:space="preserve"
	x="0px" y="0px" width="339px" height="387px"
>
	<g id="Layer%201">
		<path d="M 171 22 L 319 109 L 315 274 L 168 364 L 24 279 L 22 103 L 171 22 Z" fill="#ffffff"/>
		<g>
			<path d="M 169 31 L 309 111 L 309 274 L 169 354 L 31 274 L 31 110 L 169 31 ZM 12 100 L 12 285 L 167 375 L 171 375 L 327 285 L 327 101 L 173 12 L 166 12 L 12 100 Z" stroke="#000000" stroke-width="4" fill="#000000"/>
			<path d="M 169 60 L 52 125 L 52 177 L 254 225 L 254 241 L 169 290 L 84 243 L 84 221 L 52 209 L 52 258 L 169 325 L 286 259 L 286 206 L 85 158 L 85 143 L 169 94 L 256 142 L 256 163 L 287 176 L 287 126 L 169 60 Z" stroke="#221f20" stroke-width="4" fill="#ed1e26"/>
			<g>
				<path d="M 172 37 C 172 37 177.25 30.75 186 34 C 194.75 37.25 198 60 198 60 C 198 60 198.5 64 198 74 C 198 74 206.5 72 212 74 C 212 74 205.25 76 204 78 C 204 78 217 77 223 80 C 229 83 232.6667 82.3333 232.6667 82.3333 C 232.6667 82.3333 221.6667 100.9167 221.6667 100.1667 C 221.6667 99.4167 219 102 219 102 L 227 103 C 227 103 227.25 105.5 223 109 L 218 109 C 218 109 222 123 222 130 C 222 130 225 131 225 116 C 225 116 230.5 119.25 229 130 C 229 130 225.5 136.75 227 139 C 228.5 141.25 233 135 233 135 C 233 135 234.6667 125.3333 231 113.6667 C 231 113.6667 225 86 244 71 C 244 71 234.25 87.5 241 92 C 247.75 96.5 246 79 246 79 C 246 79 243.75 61.25 255 55 C 255 55 249 69.5 256 84 C 256 84 263.25 107.5 253 122 C 242.75 136.5 238 138 234 150 C 230 162 237 160 237 160 C 237 160 241.25 158.5 243 150 C 243 150 241 143.25 249 137 C 249 137 244.5 144.75 246 156 C 247.5 167.25 234 182 234 182 C 234 182 228.75 186 225 188 C 225 188 223 200.25 219 204 C 219 204 217.75 227 208 250 C 198.25 273 177 292 177 292 C 177 292 159 307.75 136 318 C 118.0287 326.0089 105.5522 319.6706 100.9555 316.5161 C 99.6693 315.6334 99.125 312.125 99.1959 311.2667 C 99.5502 306.9778 100.6982 300.1367 104 297 C 104 297 107.25 289.75 120 276 C 120 276 127.25 265.25 129 241 L 129 220 C 129 220 122.5 216.5 121 210 C 119.5 203.5 122 201 122 201 C 122 201 124.25 197 134 194 C 134 194 128.25 190.5 125 179 C 125 179 118.75 169 120 162 C 120 162 104 151.25 114 131 C 114 131 118.5 121.75 127 118 C 127 118 125.5 107 130 99 C 134.5 91 138 89 138 89 C 138 89 143.25 85.25 145 85 L 150 88 L 160 88 C 160 88 156.75 82.25 142 81 C 142 81 137 77 159 76 C 159 76 140.75 64.25 151 47 C 151 47 157.5 61 182 67 C 182 67 187 68.25 194 72 C 194 72 194.25 52.75 172 37 Z" stroke="#000000" stroke-width="2" fill="#221f20"/>
				<path d="M 104.6667 304.6667 C 106.3698 301.0474 120.6667 283.3333 120.6667 283.3333 C 127.3333 277.3333 135 263.6667 135 263.6667 L 126.3333 270.6667 C 133.3333 260.3333 134 224 134 224 C 158 231 156 225 156 225 C 156 225 137.1667 225.5 127 212 C 127 212 119.8333 201 135 198 L 136 203 L 136 204 L 132 204 L 133 206 C 133 206 146.6667 222.6667 178 218 C 209.3333 213.3333 209.3333 197 214 192 L 220 191 C 220 191 211.6667 214 194 221 C 194 221 198 224.3333 214 212 C 214 212 204.3333 253.3333 194 264 C 194 264 182 283.3333 151 304 C 151 304 123.3333 322.6667 105.6667 314.6667 C 105.6667 314.6667 102 310.3333 104.6667 304.6667 Z" stroke="#ed1e26" stroke-width="1" fill="#ca151f"/>
				<path d="M 199.5 224.75 C 199.5 224.75 188.25 233 175 233 C 161.75 233 143 230.75 143 230.75 L 142 232 C 142 232 143.5 259.75 140 265 C 136.5 270.25 131.75 278.5 113 299 C 110.25 303.25 109.9977 307.2749 114.7965 309.4307 C 127.75 315.25 177.0808 274.1818 181.5 268.5 C 186.75 261.75 199.75 247 199.5 224.75 Z" fill="#ed1e26"/>
				<path d="M 151 239 C 151 239 159.5 231.75 165 242 C 165 242 166.5 247.75 157 264 C 147.5 280.25 126 305.25 121 302 C 116 298.75 125.3333 289.6667 125.3333 289.6667 L 143 267 C 143 267 151 256.5 150 252 L 151 239 Z" stroke="#ffffff00" stroke-width="1" fill="#f79274"/>
				<path d="M 179 218 C 179 218 185.75 218.75 191 219 C 196.25 219.25 182.5 223.75 182.5 223.75 C 182.5 223.75 158 227.25 145 223 C 132 218.75 133 213 133 213 C 133 213 133.75 210.25 136 211 C 138.25 211.75 141 213 141 213 C 141 213 150.75 217 153 217 C 155.25 217 161.75 220.25 179 218 Z" stroke="#ffffff00" stroke-width="1" fill="#ed1d25"/>
				<path d="M 167 222 C 167 222 167.5 224.5 159 224 C 150.5 223.5 145 219 145 219 C 145 219 141.5 215.75 148 216 C 148 216 152.75 220 165 221 C 168.9885 221.3256 167 222 167 222 Z" stroke="#ffffff00" stroke-width="1" fill="#f49678"/>
				<path d="M 146 197 L 144 196 L 138.375 199.25 C 138 206.75 140 206 140 206 L 140.625 205 L 141 205 L 141 207 C 142.125 212.875 155 214 155 214 L 156 213 L 156 209 L 156.25 207.375 L 156.5 207.125 L 157.375 213.625 C 166.875 218.875 178 215 178 215 L 178.875 212.75 L 179.625 210.125 L 180 210 L 180 214 C 190.625 213.875 195 209 195 209 L 195.25 205.75 L 196 205.25 L 197 207 C 201.375 206 208 198 208 198 L 206 196 C 206 196 178.125 210.25 144 199 L 146 197 Z" stroke="#000000" stroke-width="1" fill="#ffffff"/>
				<path d="M 209 172 C 209 172 208.25 189.125 169 196 C 169 196 142.875 198.375 132 189 L 129 183 L 131 180 C 131 180 135.375 185 138 185 L 138 188 L 139 187 L 139 185 C 139 185 141.75 188 153 189 L 155 191 L 155 192 L 156 190 L 157 189 C 157 189 170.5 190.375 180 187 L 181 189 L 182 188 L 182 186 C 182 186 194.625 179.875 199 175 L 200 179 L 200 175 L 200 173 C 200 173 206.25 168.75 207 163 L 209 164 L 209 172 Z" stroke="#000000" stroke-width="1" fill="#fdfdfd"/>
				<path d="M 127 167 C 127 167 125.5 166.5 126 168 C 126.5 169.5 133.1667 172.8333 131 173 C 128.8333 173.1667 124 170 124 170 C 124 170 137.1667 192.1667 175 184 C 175 184 195 179.3333 207.5 156 L 207.6667 149.5 L 205.5 148.6667 L 204.6667 149.6667 C 204.6667 149.6667 205 153.1667 202 161 C 199 168.8333 177 178 177 178 L 173 178 L 180 172 C 180 172 167.6667 170.1667 164 165 C 164 165 158 172.6667 144 171 C 144 171 137 172.3333 127 167 Z" stroke="#ed1e26" stroke-width="1" fill="#ca151f"/>
				<path d="M 158 172 C 158 172 164 167.875 169 172 C 169 172 171.625 174.5 166 178 C 166 178 165 179.375 175 179 L 179 178 L 178 180 C 178 180 175 182.5 160 184 C 145 185.5 137 179 137 179 C 137 179 135.75 177.625 137 177 C 137 177 136.125 175.5 143 176 L 141.75 173 C 141.75 173 151.625 173.625 158 172 Z" fill="#ed1e26"/>
				<path d="M 160 178 C 160 178 154 179 152 178 C 150 177 152 175 152 175 C 152 175 155.5 172.1667 161 176 C 161 176 161.6667 177.1667 160 178 Z" stroke="#ffffff00" stroke-width="1" fill="#f79274"/>
				<path d="M 169 136 C 169 136 155.1667 108.3333 131 121 C 106.8333 133.6667 119 154 119 154 C 119 154 128.1667 168.1667 145 168 C 161.8333 167.8333 162 161 162 161 L 161 159 C 161 159 154.8333 169.6667 137 162 C 137 162 122.3333 155.6667 133 138 C 133 138 137.8333 132.6667 146 131 C 154.1667 129.3333 164 140 164 140 L 169 136 Z" stroke="#000000" stroke-width="1" fill="#ffffff"/>
				<path d="M 163 144 C 163 144 160 148 160 154 C 160 160 148 161 148 161 C 148 161 137.8333 161.8333 133 154 C 128.1667 146.1667 136 137 136 137 C 136 137 142.5 131 151 134 C 159.5 137 162.6667 140.6667 163 144 Z" stroke="#000000" stroke-width="1" fill="#ffff04"/>
				<path d="M 158 153 C 158 153 155.3333 159.1667 144 159 C 144 159 137 157.3333 136 154 C 135 150.6667 140 152 140 152 C 140 152 140.8333 156 145 156 C 149.1667 156 154.3333 154.6667 156 153 C 157.6667 151.3333 158 153 158 153 Z" stroke="#ffffff00" stroke-width="1" fill="#fcda00"/>
				<path d="M 136 141 C 136 141 130.5 147.6667 136 155 L 140 152 C 140 152 139 146.1667 140 144 C 141 141.8333 136 141 136 141 Z" stroke="#ffffff00" stroke-width="1" fill="#fdc50d"/>
				<path d="M 140 145 L 135.25 142.5 C 135.25 142.5 137 135.3333 146 136 C 155 136.6667 158.6667 141.3333 159.3333 141.1667 C 160 141 157.1667 144.1667 157.1667 144.1667 C 157.1667 144.1667 151.6667 136.8333 145 141 C 138.3333 145.1667 140 145 140 145 Z" fill="#eaa319"/>
				<path d="M 138 139 L 138 140 L 140 141 L 142 140 L 144 139 L 145 137 L 144 136 L 142 135 L 140 136 L 139 137 L 138 139 Z" fill="#ffff92"/>
				<path d="M 151 154 L 153 154 L 154 155 L 153 157 L 151 158 L 149 158 L 147 158 L 147 157 L 148 156 L 149 155 L 151 154 Z" fill="#fdf583"/>
				<path d="M 142 147 C 142 147 145.8333 140.3333 151 142 C 156.1667 143.6667 155 148 155 148 C 155 148 155.3333 151.5 152 153 C 148.6667 154.5 144 153 144 153 C 144 153 142.8333 152 142 151 C 141.1667 150 142 147 142 147 Z" stroke="#000000" stroke-width="1" fill="#221f20"/>
				<path d="M 166 124 C 166 124 156.75 114.25 144 113 C 144 113 133.75 113.5 131 116 C 131 116 130.25 104 133 101 C 133 101 136.5 95.5 143 96 C 149.5 96.5 160 113 160 113 C 160 113 162.75 116.75 166 117 C 169.25 117.25 172 114 172 114 C 172 114 175.75 108 175 100 L 169 104 C 169 104 160.75 94.5 157 93 C 153.25 91.5 162 92 162 92 C 162 92 168.5 92.75 170 95 C 170 95 173.25 95 166 90 C 166 90 191.25 84 200 92 C 208.75 100 212.75 108.5 213 111 C 213 111 217.5 117.75 219 133 C 219 133 208.5 140.5 208 145 L 205 145 C 205 145 205 141 202 137 C 199 133 212 133 212 133 C 212 133 215.5 134.5 215 135 C 215 135 216 129.75 204 130 C 204 130 201 129.75 198 133 C 198 133 193.5 130.25 190 131 C 190 131 203 120 203 116 C 203 112 212.25 127 212 129 C 212 129 214.5 128.25 212 116 C 209.5 103.75 198 100 198 100 L 198 102 C 198 102 184.5 100.25 181 108 C 181 108 191.75 103.25 196 106 C 196 106 190 115.75 182 118 C 182 118 180.5 120 177 115 C 177 115 168.75 125.25 174 131 L 174 133 C 174 133 168.5 130 170 124 C 170 124 169.75 120.5 174 115 C 174 115 167 118.75 166 124 Z" stroke="#ed1e26" stroke-width="1" fill="#ca151f"/>
				<path d="M 165.75 146.75 C 165.75 146.75 170 136 181 134 C 192 132 198 140 198 140 C 198 140 205 147.25 198.5 157 C 194.181 163.4785 195.75 164.5 181 168 C 181 168 168.5 167.25 166 160 C 164.8609 156.6967 164.305 154.109 164.25 152 C 164.1842 149.4802 165.75 146.75 165.75 146.75 Z" stroke="#000000" stroke-width="1" fill="#ffffff"/>
				<path d="M 172 146 C 172 146 176.75 139.75 182.5 139.5 C 188.25 139.25 193 143 193 143 C 193 143 198.25 148.5 196 155 C 193.75 161.5 188.5 163.25 188 163 C 187.5 162.75 179.5 166.75 174 161 C 168.5 155.25 170.25 150.75 170.25 150.75 C 170.25 150.75 171.25 146.5 172 146 Z" stroke="#000000" stroke-width="1" fill="#221f20"/>
				<path d="M 194 154 C 194 154 187.5 161.25 179 160 C 179 160 172.75 157.5 172 153 C 171.25 148.5 175 146 175 146 C 175 146 175.75 142.5 183 141 C 190.25 139.5 195 148 195 148 C 195 148 195.75 152.5 194 154 Z" stroke="#000000" stroke-width="1" fill="#ffff04"/>
				<path d="M 192.5 153 C 192.5 153 189.9887 158.1089 181.6681 157.9978 C 181.6681 157.9978 176.2342 157.3886 175.5 155.1667 C 174.7658 152.9448 178 153.1667 178 153.1667 C 178 153.1667 179.3432 155.9981 182.4022 155.9981 C 185.4613 155.9981 189.1097 153.7776 190.3333 152.6667 C 191.5569 151.5557 192.5 153 192.5 153 Z" stroke="#ffffff00" stroke-width="1" fill="#fcda00"/>
				<path d="M 175.7946 145.9995 C 175.7946 145.9995 171.462 150.4451 175.5 155.3333 L 178.1667 153.5 C 178.1667 153.5 177.9972 149.4434 178.7314 147.9992 C 179.4655 146.5549 175.7946 145.9995 175.7946 145.9995 Z" stroke="#ffffff00" stroke-width="1" fill="#fdc50d"/>
				<path d="M 178.5 148.6667 L 175.244 146.9993 C 175.244 146.9993 176.5288 142.2222 183.1364 142.6666 C 189.744 143.1109 191.5105 146.4444 192 146.3333 C 192.4894 146.2222 190.1667 148.6667 190.1667 148.6667 C 190.1667 148.6667 186.2278 142.8893 181.3333 145.6667 C 176.4388 148.4441 178.5 148.6667 178.5 148.6667 Z" fill="#eaa319"/>
				<path d="M 177.263 144.6663 L 177.263 145.3329 L 178.7314 145.9995 L 180.1997 145.3329 L 181.6681 144.6663 L 182.4022 143.3331 L 181.6681 142.6666 L 180.1997 142 L 178.7314 142.6666 L 177.9972 143.3331 L 177.263 144.6663 Z" fill="#ffff92"/>
				<path d="M 186.8073 154.6649 L 188.2757 154.6649 L 189.0098 155.3315 L 188.2757 156.6646 L 186.8073 157.3312 L 185.3389 157.3312 L 183.8706 157.3312 L 183.8706 156.6646 L 184.6048 155.9981 L 185.3389 155.3315 L 186.8073 154.6649 Z" fill="#fdf583"/>
				<path d="M 179 152 C 179 152 180 143.5 186 147 C 192 150.5 185 154 185 154 C 185 154 181.25 156.25 179 152 Z" stroke="#000000" stroke-width="1" fill="#221f20"/>
				<path d="M 196 189 C 196 189 207.3333 185.6667 213 171 C 213 171 213.2422 167.995 212.5 163.6875 C 212.1391 161.5931 212.0893 159.0928 211.25 157.75 C 211.25 157.75 210.3333 143.6667 216 141 C 221.6667 138.3333 224 133 224 133 C 224 133 220.3333 142 225 145 C 229.6667 148 233 140 233 140 C 233 140 238 136.3333 236 119 C 236 119 236 115.6667 234 108 C 232 100.3333 233.3333 96.6667 236 89 C 236 89 235.6667 98.3333 243 98 C 250.3333 97.6667 250 88 250 88 L 250 80 C 250 80 255 94.6667 254 101 C 254 101 257.3333 109.3333 243 128 C 228.6667 146.6667 228 151 228 151 C 228 151 226.5 161 231 163.1667 C 231 163.1667 235 167.3333 241 162 C 241 162 237.3333 176.6667 224 182 C 224 182 211 190.3333 196 189 Z" stroke="#ffdd00" stroke-width="1" fill="#fdc30d"/>
				<path d="M 212 182 C 212 182 216.5 180.5 216 175 C 215.5 169.5 214 167 214 167 C 214 167 213.4253 157.9808 214 153 C 214.75 146.5 218.5 144 219.6667 143.3333 C 219.6667 143.3333 219.5 148 220.6667 149.3333 C 221.8333 150.6667 225.6667 149.6667 225.6667 149.6667 C 225.6667 149.6667 222.3333 158.5 227 163 C 227 163 227.6667 166.8333 234 168 C 234 168 233.8333 173.6667 222 181 C 222 181 214.3333 184 212 182 Z" fill="#ffde00"/>
				<path d="M 242 125 C 242 125 248.5 115.8333 250 110 C 251.5 104.1667 252.4583 100.9167 251.125 95.25 C 251.125 95.25 250 98.5 242 101 C 242 101 236.6667 100.2083 235.5 96.375 C 235.5 96.375 235.9349 107.4825 237 110 C 238.8333 114.3333 238.6411 115.8062 238.5 117.5 C 238.375 119 238 122 238 129 C 238 129 240.1667 128.1667 242 125 Z" stroke="#ffffff00" stroke-width="1" fill="#ffde00"/>
				<path d="M 238 103 C 238 103 242.8333 107.5 249 103 C 249 103 245.8333 115.5 243 118 C 243 118 237.3333 108.8333 238 103 Z" stroke="#fdd866" stroke-width="1" fill="#fff686"/>
				<path d="M 218 153 C 218 153 218.8333 155.6667 223 156 C 223 156 222 168 230 171 C 230 171 226.3333 177.1667 219 180 L 218 153 Z" stroke="#fdd866" stroke-width="1" fill="#fff686"/>
				<path d="M 119 141 C 119 141 120 152 126 154 C 126 154 129 158.1667 133 162 C 137 165.8333 126.6667 160.3333 126 159 C 125.3333 157.6667 126.8333 156 125 155 C 123.1667 154 122 155 122 155 C 122 155 117.1667 149.3333 119 141 Z" fill="#e6e6e6"/>
				<path d="M 135 112 C 135 112 131.5 105.3333 138 101 C 144.5 96.6667 154 110 154 110 C 154 110 154.5 112.1667 152 112 C 149.5 111.8333 144.1667 110.5 135 112 Z" fill="#ed1e26"/>
				<path d="M 138 104 C 138 104 140.3333 100 144 104 C 147.6667 108 143 108 143 108 C 143 108 140.1667 108.5 138 104 Z" fill="#f79274"/>
				<path d="M 174 92 C 174 92 184.3333 85.1667 199 95 C 199 95 201.6667 99.6667 189 100 C 176.3333 100.3333 174 92 174 92 Z" stroke="#ffffff00" stroke-width="1" fill="#ed1e26"/>
				<path d="M 182 95 C 182 95 181 91.8333 185 92 C 189 92.1667 190 94 190 94 C 190 94 189.8333 95.8333 188 96 C 186.1667 96.1667 182.8333 96.5 182 95 Z" stroke="#ffffff00" stroke-width="1" fill="#f79274"/>
				<path d="M 180.6667 112 C 180.6667 112 178 107.8333 191 107 C 191 107 183.3333 114 183 114 C 182.6667 114 180.6667 115.1667 180.6667 112 Z" stroke="#ffffff00" stroke-width="1" fill="#ed1e26"/>
				<path d="M 182 111 C 182 111 182.1667 107.3333 186 110 C 186 110 184.3333 114.3333 182 111 Z" stroke="#ffffff00" stroke-width="1" fill="#f79274"/>
				<path d="M 204 138 C 204 138 207.25 134.25 210 136 C 212.75 137.75 208 140 208 140 L 204 138 Z" stroke="#ffffff00" stroke-width="1" fill="#ed1e26"/>
				<path d="M 206 137 C 206 137 206.1667 133.3333 210 136 C 210 136 208.3333 140.3333 206 137 Z" stroke="#ffffff00" stroke-width="1" fill="#f79274"/>
				<path d="M 158 69 C 158 69 150 59.1667 152 52.3333 C 152 52.3333 150 59.1667 179 69 C 179 69 191.6667 73.6667 197 79 L 198 81 C 198 81 205.8333 77.1667 228 85 L 220 97 C 220 97 220.8333 90.5 207 86 C 207 86 198.1667 83.5 196 86 C 196 86 181.3333 69.8333 158 69 Z" stroke="#568e37" stroke-width="1" fill="#416b2a"/>
				<path d="M 161 79 L 161 84 C 161 84 158 80 151 80 L 161 79 Z" stroke="#568e37" stroke-width="1" fill="#416b2a"/>
				<path d="M 178 38 C 178 38 181.5 35.6667 184 36 C 184 36 195.1667 49.8333 196 65 C 196 65 190.3333 47 178 38 Z" stroke="#568e37" stroke-width="1" fill="#416b2a"/>
				<path d="M 200 76 C 200 76 205.1667 75 207 75 L 202 77 L 200 76 Z" stroke="#568e37" stroke-width="1" fill="none"/>
				<path d="M 217 105 C 217.3333 104.3333 224 105.6667 225 105 C 225 105 224.1667 105.8333 218 107 C 218 107 216.6667 105.6667 217 105 Z" stroke="#568e37" stroke-width="1" fill="#416b2a"/>
			</g>
			<path d="M 85 150 L 85 143 L 169 94 L 256 142 L 256 163 L 287 176 L 287 126 L 169 60 L 52 125 L 52 150 " stroke="#221f20" stroke-width="4" fill="#ed1e26"/>
			<path d="M 254 234 L 254 241 L 169 290 L 84 243 L 84 221 L 52 209 L 52 258 L 169 325 L 286 259 L 286 234 " stroke="#221f20" stroke-width="4" fill="#ed1e26"/>
			<g>
				<path d="M 222.4229 129.9434 C 223.2496 129.58 225 127.4576 225 116 C 225 116 230.5 119.25 229 130 C 229 130 225.5 136.75 227 139 C 228.5 141.25 233 135 233 135 C 233 135 234.6667 125.3333 231 113.6667 C 231 113.6667 225 86 244 71 C 244 71 234.25 87.5 241 92 C 247.75 96.5 246 79 246 79 C 246 79 243.75 61.25 255 55 C 255 55 249 69.5 256 84 C 256 84 263.25 107.5 253 122 C 242.75 136.5 238 138 234 150 C 230 162 237 160 237 160 C 237 160 241.25 158.5 243 150 C 243 150 241 143.25 249 137 C 249 137 244.5 144.75 246 156 C 247.5 167.25 234 182 234 182 C 234 182 229.2026 185.6552 225.504 187.7244 " stroke="#000000" stroke-width="2" fill="#221f20"/>
				<path d="M 196 189 C 196 189 207.3333 185.6667 213 171 C 213 171 213.2422 167.995 212.5 163.6875 C 212.1391 161.5931 212.0893 159.0928 211.25 157.75 C 211.25 157.75 210.3333 143.6667 216 141 C 221.6667 138.3333 224 133 224 133 C 224 133 220.3333 142 225 145 C 229.6667 148 233 140 233 140 C 233 140 238 136.3333 236 119 C 236 119 236 115.6667 234 108 C 232 100.3333 233.3333 96.6667 236 89 C 236 89 235.6667 98.3333 243 98 C 250.3333 97.6667 250 88 250 88 L 250 80 C 250 80 255 94.6667 254 101 C 254 101 257.3333 109.3333 243 128 C 228.6667 146.6667 228 151 228 151 C 228 151 226.5 161 231 163.1667 C 231 163.1667 235 167.3333 241 162 C 241 162 237.3333 176.6667 224 182 C 224 182 211 190.3333 196 189 Z" stroke="#ffdd00" stroke-width="1" fill="#fdc30d"/>
				<path d="M 212 182 C 212 182 216.5 180.5 216 175 C 215.5 169.5 214 167 214 167 C 214 167 213.4253 157.9808 214 153 C 214.75 146.5 218.5 144 219.6667 143.3333 C 219.6667 143.3333 219.5 148 220.6667 149.3333 C 221.8333 150.6667 225.6667 149.6667 225.6667 149.6667 C 225.6667 149.6667 222.3333 158.5 227 163 C 227 163 227.6667 166.8333 234 168 C 234 168 233.8333 173.6667 222 181 C 222 181 214.3333 184 212 182 Z" fill="#ffde00"/>
				<path d="M 242 125 C 242 125 248.5 115.8333 250 110 C 251.5 104.1667 252.4583 100.9167 251.125 95.25 C 251.125 95.25 250 98.5 242 101 C 242 101 236.6667 100.2083 235.5 96.375 C 235.5 96.375 235.9349 107.4825 237 110 C 238.8333 114.3333 238.6411 115.8062 238.5 117.5 C 238.375 119 238 122 238 129 C 238 129 240.1667 128.1667 242 125 Z" stroke="#ffffff00" stroke-width="1" fill="#ffde00"/>
				<path d="M 238 103 C 238 103 242.8333 107.5 249 103 C 249 103 245.8333 115.5 243 118 C 243 118 237.3333 108.8333 238 103 Z" stroke="#fdd866" stroke-width="1" fill="#fff686"/>
				<path d="M 218 153 C 218 153 218.8333 155.6667 223 156 C 223 156 222 168 230 171 C 230 171 226.3333 177.1667 219 180 L 218 153 Z" stroke="#fdd866" stroke-width="1" fill="#fff686"/>
			</g>
		</g>
	</g>
</svg>