<?xml version="1.0" standalone="no"?>
<!DOCTYPE svg PUBLIC "-//W3C//DTD SVG 20010904//EN"
 "http://www.w3.org/TR/2001/REC-SVG-20010904/DTD/svg10.dtd">
<svg version="1.0" xmlns="http://www.w3.org/2000/svg"
 width="512.000000pt" height="512.000000pt" viewBox="0 0 512.000000 512.000000"
 preserveAspectRatio="xMidYMid meet">
<metadata>
Created by potrace 1.11, written by Peter Selinger 2001-2013
</metadata>
<g transform="translate(0.000000,512.000000) scale(0.100000,-0.100000)"
fill="#000000" stroke="none">
<path d="M0 2560 l0 -2560 2560 0 2560 0 0 2560 0 2560 -2560 0 -2560 0 0
-2560z m4717 437 l38 -37 3 -398 c2 -382 2 -398 -18 -430 -11 -18 -34 -41 -52
-52 -33 -20 -55 -20 -1836 -20 -1311 0 -1809 3 -1825 11 -12 6 -36 24 -52 40
-30 28 -31 28 -98 17 -184 -30 -381 72 -459 238 -126 268 29 572 317 625 60
11 156 6 200 -11 18 -7 28 -4 46 17 13 14 33 29 44 34 11 4 838 7 1837 6
l1818 -2 37 -38z"/>
<path d="M1028 2984 c-16 -8 -28 -18 -28 -22 1 -4 26 -23 56 -42 256 -162 253
-557 -4 -724 -65 -42 -69 -57 -21 -81 24 -13 267 -15 1818 -15 1367 0 1796 3
1816 12 54 24 55 36 55 438 0 402 -1 414 -55 438 -20 9 -449 12 -1818 12
-1569 -1 -1795 -3 -1819 -16z m1692 -106 c0 -7 -7 -38 -15 -68 -23 -86 -22
-88 33 -82 41 3 52 0 80 -23 88 -74 53 -242 -63 -311 -40 -23 -58 -27 -119
-27 -78 1 -128 15 -121 35 2 7 25 101 50 208 65 277 62 268 88 273 44 9 67 7
67 -5z m767 -77 c-3 -16 -9 -40 -13 -55 -6 -26 -6 -26 51 -26 55 0 57 -1 51
-22 -3 -13 -6 -29 -6 -35 0 -9 -18 -13 -59 -13 l-59 0 -16 -65 c-30 -119 -15
-155 60 -140 33 6 34 5 34 -28 0 -42 -11 -47 -89 -47 -69 0 -107 24 -116 73
-7 34 59 341 77 364 5 6 24 14 41 16 18 2 36 5 41 5 5 1 6 -11 3 -27z m280 0
c-3 -16 -9 -40 -13 -55 -6 -26 -6 -26 51 -26 55 0 57 -1 51 -22 -3 -13 -6 -29
-6 -35 0 -9 -18 -13 -59 -13 l-59 0 -16 -65 c-30 -119 -15 -155 60 -140 33 6
34 5 34 -28 0 -42 -11 -47 -89 -47 -69 0 -107 24 -116 73 -7 34 59 341 77 364
5 6 24 14 41 16 18 2 36 5 41 5 5 1 6 -11 3 -27z m-2116 -87 c67 -34 80 -175
23 -256 -40 -57 -100 -89 -171 -93 l-57 -2 -15 -59 -16 -59 -48 -3 c-26 -2
-47 1 -47 5 0 4 25 112 56 240 l56 232 46 6 c26 4 54 8 62 9 24 5 82 -5 111
-20z m435 5 l32 -10 -24 -92 c-18 -66 -24 -113 -22 -167 l3 -75 -38 -3 c-21
-2 -45 2 -52 8 -10 8 -22 7 -46 -5 -46 -24 -104 -15 -142 24 -26 25 -31 40
-35 91 -3 42 1 74 13 105 21 57 94 122 144 131 20 3 41 7 46 8 15 5 86 -5 121
-15z m214 -36 c0 -82 12 -183 22 -183 11 0 70 126 89 188 l12 42 53 0 53 0
-13 -37 c-59 -162 -191 -369 -266 -419 -30 -20 -52 -26 -91 -26 -64 0 -75 9
-60 55 11 34 13 35 52 30 34 -5 44 -2 68 21 l28 27 -18 82 c-19 88 -38 254
-30 262 2 3 26 5 53 5 l48 0 0 -47z m1870 10 c73 -81 29 -258 -76 -308 -120
-57 -232 15 -220 141 5 60 33 118 73 155 47 43 65 50 132 46 56 -3 67 -7 91
-34z m370 22 c20 -10 33 -28 41 -55 11 -35 9 -56 -17 -165 l-28 -125 -49 0
c-41 0 -48 2 -43 18 21 67 47 199 44 225 -3 30 -6 32 -45 35 l-41 3 -33 -140
-33 -141 -47 0 -47 0 12 53 c66 281 68 287 101 296 50 15 153 12 185 -4z
m-1497 -97 c-27 -113 -27 -156 0 -172 25 -16 69 11 78 49 4 17 17 74 29 128
l22 97 48 0 47 0 -29 -117 c-25 -99 -28 -126 -20 -170 l8 -52 -39 -7 c-31 -5
-42 -3 -49 10 -8 14 -12 15 -38 1 -38 -19 -110 -19 -137 0 -45 31 -49 81 -18
214 l28 121 47 0 47 0 -24 -102z"/>
<path d="M2674 2642 c-9 -5 -54 -172 -54 -198 0 -2 15 -4 34 -4 38 0 80 29
101 70 18 35 20 111 3 128 -13 13 -67 16 -84 4z"/>
<path d="M1492 2558 c-12 -51 -22 -96 -22 -100 0 -5 16 -8 35 -8 24 0 44 9 66
28 27 24 33 37 37 84 5 64 -11 88 -62 88 l-32 0 -22 -92z"/>
<path d="M1906 2625 c-32 -30 -46 -64 -46 -114 0 -43 14 -61 48 -61 38 0 62
18 62 48 0 15 7 52 15 82 19 72 20 70 -19 70 -21 0 -42 -9 -60 -25z"/>
<path d="M4033 2650 c-66 -27 -93 -177 -37 -202 56 -26 114 41 114 129 0 42
-4 55 -22 67 -25 18 -25 18 -55 6z"/>
</g>
</svg>
